HIERARCHY
ROOT Hips
{
	OFFSET 0.000000 0.000000 0.000000 
	CHANNELS 6 Xposition Yposition Zposition Yrotation Zrotation Xrotation 
	JOINT Lumbar
	{
		OFFSET 0.000000 0.000000 0.000000 
		CHANNELS 3 Zrotation Xrotation Yrotation
		JOINT Neck
		{
			OFFSET 0.000000 0.445665 0.000000 
			CHANNELS 3 Zrotation Xrotation Yrotation
			End Site
			{
				OFFSET 0.000000 0.227535 0.000000 
			}
		}
		JOINT RightShoulder
		{
			OFFSET 0.019635 0.377685 0.194865 
			CHANNELS 3 Zrotation Xrotation Yrotation
			JOINT RightElbow
			{
				OFFSET 0.000000 -0.243375 0.000000 
				CHANNELS 2 Zrotation Yrotation
				JOINT RightWrist
				{
					OFFSET 0.000000 -0.264825 0.000000 
					CHANNELS 2 Zrotation Xrotation
					End Site
					{
						OFFSET 0.006600 -0.176220 0.000990 
					}
				}
			}
		}
		JOINT LeftShoulder
		{
			OFFSET 0.019635 0.377685 -0.194865 
			CHANNELS 3 Zrotation Xrotation Yrotation
			JOINT LeftElbow
			{
				OFFSET 0.000000 -0.243375 0.000000 
				CHANNELS 2 Zrotation Yrotation
				JOINT LeftWrist
				{
					OFFSET 0.000000 -0.264825 0.000000 
					CHANNELS 2 Zrotation Xrotation
					End Site
					{
						OFFSET 0.006600 -0.176220 -0.000990 
					}
				}
			}
		}
	}
	JOINT RightHip
	{
		OFFSET 0.052140 -0.069960 0.075570 
		CHANNELS 3 Zrotation Xrotation Yrotation
		JOINT RightKnee
		{
			OFFSET 0.000000 -0.402270 0.000000 
			CHANNELS 1 Zrotation
			JOINT RightAnkle
			{
				OFFSET 0.000000 -0.404085 0.000000 
				CHANNELS 3 Zrotation Xrotation Yrotation
				End Site
				{
					OFFSET 0.204105 -0.089430 0.008415 
				}
			}
		}
	}
	JOINT LeftHip
	{
		OFFSET 0.052140 -0.069960 -0.075570 
		CHANNELS 3 Zrotation Xrotation Yrotation
		JOINT LeftKnee
		{
			OFFSET 0.000000 -0.402270 0.000000 
			CHANNELS 1 Zrotation
			JOINT LeftAnkle
			{
				OFFSET 0.000000 -0.404085 0.000000 
				CHANNELS 3 Zrotation Xrotation Yrotation
				End Site
				{
					OFFSET 0.204105 -0.089430 -0.008415 
				}
			}
		}
	}
}
MOTION
Frames: 19
Frame Time: 0.02
-0.00143 2e-05 -0.00021 25.47427 -22.07428 1.76189 40.32283 -2.27072 -4.3075 5.37842 -4.57325 -0.19552 -0.07655 -14.76056 12.96259 37.52637 94.71774 6.74898 1.06316 10.11605 8.4856 -8.15527 35.06348 -95.20789 7.73202 -0.78907 52.91975 -11.10611 5.91479 -42.97734 -7.11187 -5.02029 -3.33595 41.28795 -5.85988 12.70096 -27.11458 -5.58137 2.87735 2.10759
-0.00207 -0.00014 -8e-05 25.50301 -22.09621 1.74747 40.3351 -2.28825 -4.19956 5.16286 -4.52296 -0.1964 -0.90297 -14.9562 12.68751 37.6307 94.49446 6.62466 1.07463 8.96524 8.58103 -7.2853 34.64062 -94.87532 7.49523 -0.81334 52.98577 -11.23297 5.6115 -42.97612 -7.09 -4.99092 -3.31757 41.34286 -5.78806 12.98659 -27.13747 -5.58542 2.85172 2.08901
-0.00269 -0.00029 6e-05 25.53171 -22.11823 1.73289 40.34738 -2.30569 -4.09187 4.94764 -4.47259 -0.19727 -1.72862 -15.15143 12.41224 37.7345 94.27181 6.50063 1.08607 7.81557 8.67599 -6.41561 34.21886 -94.55184 7.26133 -0.83874 53.05158 -11.3594 5.30865 -42.97461 -7.06818 -4.9616 -3.29921 41.39779 -5.71625 13.27127 -27.16028 -5.58947 2.82613 2.07047
-0.00332 -0.00045 0.0002 25.56037 -22.1401 1.7185 40.35961 -2.32316 -3.98425 4.7327 -4.42242 -0.19815 -2.55274 -15.34651 12.13787 37.83847 94.04921 6.37667 1.09751 6.66798 8.77111 -5.54791 33.79722 -94.22181 7.02566 -0.86317 53.1174 -11.48587 5.00623 -42.97337 -7.04638 -4.93232 -3.28089 41.45255 -5.64464 13.55599 -27.18311 -5.5935 2.80058 2.05194
-0.00395 -0.00061 0.00033 25.58904 -22.16186 1.70431 40.37185 -2.34073 -3.87641 4.51755 -4.37239 -0.19902 -3.37709 -15.54192 11.86399 37.94306 93.82601 6.25247 1.10896 5.51998 8.86674 -4.6809 33.37471 -93.87907 6.78616 -0.88592 53.18344 -11.61274 4.70349 -42.97247 -7.02454 -4.90298 -3.26253 41.50724 -5.57304 13.84172 -27.20602 -5.59752 2.77499 2.03337
-0.00458 -0.00076 0.00047 25.61779 -22.18444 1.68889 40.3842 -2.35786 -3.76903 4.30219 -4.3213 -0.19989 -4.20546 -15.73672 11.5858 38.0452 93.60456 6.12879 1.12039 4.36678 8.96029 -3.80567 32.95465 -93.5957 6.56394 -0.91684 53.24875 -11.7382 4.40043 -42.96962 -7.00276 -4.87369 -3.24419 41.5627 -5.50077 14.12418 -27.2286 -5.60164 2.74939 2.0149
-0.00521 -0.00092 0.00061 25.64637 -22.20525 1.67605 40.39626 -2.3759 -3.66086 4.08749 -4.27246 -0.20077 -5.0245 -15.9326 11.3168 38.15214 93.37981 6.00419 1.13184 3.22581 9.05794 -2.9478 32.52974 -93.19492 6.30761 -0.93155 53.31547 -11.86646 4.09847 -42.97086 -6.98089 -4.84439 -3.22586 41.61647 -5.43006 14.41279 -27.25186 -5.60555 2.72387 1.99626
-0.00584 -0.00108 0.00074 25.67507 -22.22786 1.66067 40.40869 -2.39303 -3.5534 3.87219 -4.22142 -0.20164 -5.85277 -16.12736 11.03894 38.25467 93.15813 5.88047 1.14328 2.07268 9.15178 -2.07417 32.10997 -92.89923 6.08199 -0.96071 53.38088 -11.99198 3.79529 -42.96807 -6.95906 -4.81501 -3.20747 41.67192 -5.35767 14.69598 -27.27442 -5.60967 2.69824 1.97775
-0.00646 -0.00122 0.00089 25.70407 -22.25203 1.64278 40.4212 -2.40932 -3.4468 3.65595 -4.16814 -0.20251 -6.69049 -16.32137 10.75145 38.35177 92.94001 5.75761 1.15471 0.90724 9.24112 -1.17949 31.69364 -92.74596 5.89715 -1.00975 53.44476 -12.11482 3.4912 -42.96133 -6.93746 -4.78586 -3.18919 41.72903 -5.28415 14.97165 -27.29641 -5.61396 2.67261 1.95946
-0.00712 -0.00143 0.001 25.73181 -22.26531 1.64114 40.43211 -2.43128 -3.33524 3.44452 -4.12907 -0.20339 -7.46841 -16.52154 10.52295 38.47999 92.7008 5.62916 1.16621 -0.17979 9.35681 -0.4005 31.24895 -91.81537 5.48743 -0.95112 53.51766 -12.2551 3.1941 -42.98022 -6.91509 -4.75638 -3.17083 41.77538 -5.21987 15.28788 -27.32256 -5.61702 2.64735 1.94013
-0.00769 -0.0015 0.00118 25.76192 -22.30277 1.60406 40.4471 -2.44075 -3.23414 3.22338 -4.05924 -0.20426 -8.37567 -16.70751 10.16787 38.54265 92.5065 5.51292 1.17752 -1.43675 9.41662 0.6188 30.86964 -92.49701 5.54572 -1.11519 53.57137 -12.35728 2.8812 -42.94321 -6.894 -4.72695 -3.15229 41.84519 -5.13438 15.52027 -27.33936 -5.62286 2.62109 1.92286
-0.00803 -0.00125 0.00156 25.80079 -22.39781 1.47807 40.46799 -2.41992 -3.16232 2.97166 -3.91038 -0.2051 -9.61543 -16.86383 9.47915 38.42225 92.43404 5.42735 1.18884 -3.12854 9.32363 2.3353 30.62583 -97.87865 6.95515 -1.93362 53.57329 -12.36394 2.53358 -42.76601 -6.87917 -4.70271 -3.1359 41.97429 -5.00446 15.50402 -27.33493 -5.63498 2.59416 1.91248
-0.00827 -0.00085 0.00202 25.84151 -22.5189 1.31486 40.49408 -2.38577 -3.10103 2.71108 -3.72964 -0.20595 -10.98867 -17.00397 8.66105 38.23635 92.40743 5.35471 1.19994 -4.99658 9.17432 4.28549 30.45586 -104.82899 8.8225 -2.96777 53.55583 -12.33024 2.16909 -42.53006 -6.86514 -4.67746 -3.11877 42.12807 -4.85091 15.40551 -27.32021 -5.65013 2.56604 1.90404
-0.00854 -0.0005 0.00246 25.88007 -22.63367 1.16334 40.52109 -2.35522 -3.03436 2.45694 -3.56001 -0.20679 -12.31626 -17.14563 7.89284 38.08275 92.36017 5.27783 1.21073 -6.80487 9.05053 6.10489 30.28074 -110.88028 10.4362 -3.87482 53.54663 -12.30964 1.80591 -42.31261 -6.84889 -4.64948 -3.10031 42.27367 -4.6989 15.35868 -27.30745 -5.66481 2.53686 1.89376
-0.00889 -0.00026 0.00284 25.92468 -22.72473 1.03414 40.53377 -2.33525 -2.96968 2.19197 -3.40462 -0.20762 -13.58317 -17.3126 7.16082 37.91926 92.31026 5.19348 1.223 -8.52865 8.92729 8.03116 29.98568 -117.71711 12.24166 -4.90457 53.53956 -12.31283 1.46702 -42.13041 -6.84034 -4.6354 -3.08909 42.40581 -4.58478 15.25754 -27.30651 -5.67574 2.51364 1.8871
-0.00904 0.00025 0.00336 25.95653 -22.87194 0.84921 40.57813 -2.2898 -2.90405 1.94824 -3.21197 -0.20849 -15.00505 -17.4221 6.32417 37.75968 92.27918 5.12848 1.23246 -10.46891 8.78914 9.78698 29.95812 -123.29399 13.75804 -5.73044 53.52366 -12.25474 1.07667 -41.8599 -6.81613 -4.5916 -3.06234 42.57273 -4.38727 15.24222 -27.27806 -5.69514 2.47874 1.87391
-0.00871 0.00145 0.00422 25.95816 -23.16244 0.52353 40.70369 -2.17968 -2.82737 1.75871 -2.92487 -0.20945 -16.84694 -17.38398 5.21607 37.63768 92.27631 5.1102 1.23243 -12.97326 8.62741 11.04101 30.64917 -124.96208 14.34668 -5.93457 53.48578 -12.05616 0.52142 -41.36762 -6.74695 -4.4706 -2.99556 42.82136 -3.95523 15.5533 -27.17988 -5.73768 2.40279 1.83729
-0.00818 0.00291 0.00522 25.94602 -23.50939 0.14245 40.86189 -2.04398 -2.75074 1.59211 -2.60147 -0.21045 -18.83478 -17.28669 4.00818 37.52019 92.29889 5.11336 1.23069 -15.68657 8.45201 12.11003 31.6068 -125.31525 14.63154 -5.92699 53.43971 -11.79402 -0.08022 -40.78662 -6.66241 -4.31905 -2.9128 43.10536 -3.44175 15.9421 -27.05367 -5.78855 2.31664 1.79484
-0.00772 0.00426 0.00618 25.93644 -23.8342 -0.21603 41.00846 -1.91834 -2.6776 1.4194 -2.29403 -0.21143 -20.74048 -17.21255 2.85739 37.39325 92.31076 5.10686 1.22987 -18.29921 8.28026 13.24716 32.44424 -126.30099 15.06695 -6.02034 53.39944 -11.54833 -0.64266 -40.24176 -6.58575 -4.1782 -2.83548 43.379 -2.97238 16.24809 -26.93788 -5.83524 2.24133 1.7584
